<svg xmlns="http://www.w3.org/2000/svg" width="24.756" height="24.756" viewBox="0 0 24.756 24.756">
  <path id="Icon_awesome-facebook-square" data-name="Icon awesome-facebook-square" d="M22.1,2.25H2.652A2.652,2.652,0,0,0,0,4.9V24.353a2.652,2.652,0,0,0,2.652,2.652h7.584V18.589H6.755V14.628h3.481V11.608c0-3.434,2.045-5.331,5.176-5.331a21.09,21.09,0,0,1,3.068.267V9.915H16.753a1.981,1.981,0,0,0-2.234,2.14v2.572h3.8l-.608,3.961H14.519v8.416H22.1a2.652,2.652,0,0,0,2.652-2.652V4.9A2.652,2.652,0,0,0,22.1,2.25Z" transform="translate(0 -2.25)"/>
</svg>
