<svg xmlns="http://www.w3.org/2000/svg" width="24.756" height="24.756" viewBox="0 0 24.756 24.756">
  <path id="Icon_awesome-twitter-square" data-name="Icon awesome-twitter-square" d="M22.1,2.25H2.652A2.653,2.653,0,0,0,0,4.9V24.353a2.653,2.653,0,0,0,2.652,2.652H22.1a2.653,2.653,0,0,0,2.652-2.652V4.9A2.653,2.653,0,0,0,22.1,2.25Zm-2.7,8.775c.011.155.011.315.011.47A10.241,10.241,0,0,1,9.1,21.806a10.264,10.264,0,0,1-5.564-1.625,7.635,7.635,0,0,0,.873.044,7.266,7.266,0,0,0,4.5-1.547A3.629,3.629,0,0,1,5.52,16.164,3.906,3.906,0,0,0,7.156,16.1a3.624,3.624,0,0,1-2.9-3.559v-.044a3.622,3.622,0,0,0,1.636.459A3.616,3.616,0,0,1,4.277,9.936a3.579,3.579,0,0,1,.492-1.829A10.29,10.29,0,0,0,12.24,11.9a3.632,3.632,0,0,1,6.183-3.31,7.1,7.1,0,0,0,2.3-.873A3.615,3.615,0,0,1,19.13,9.71a7.212,7.212,0,0,0,2.089-.564A7.628,7.628,0,0,1,19.4,11.025Z" transform="translate(0 -2.25)"/>
</svg>
