<svg xmlns="http://www.w3.org/2000/svg" width="24.755" height="24.756" viewBox="0 0 24.755 24.756">
  <path id="Icon_zocial-instagram" data-name="Icon zocial-instagram" d="M2.242,24.8a2.943,2.943,0,0,1-1.354-.769,2.724,2.724,0,0,1-.75-1.292c-.087-.343-.092-.668-.092-10.221C.041,1.782.026,2.372.307,1.768A2.887,2.887,0,0,1,1.715.37c.624-.276.015-.261,10.83-.247l9.965.01.31.106A2.934,2.934,0,0,1,24.677,2.1l.106.31.01,9.965c.015,11.067.039,10.24-.314,10.956a2.873,2.873,0,0,1-1.224,1.224c-.706.348.1.324-10.855.319C4.027,24.865,2.488,24.855,2.242,24.8Zm19.281-2.946c.4-.281.406-.31.421-2.153.015-1.795,0-1.886-.29-2.172-.266-.261-.392-.276-2.143-.271l-1.6,0-.218.116a1.189,1.189,0,0,0-.358.339l-.145.213,0,1.6c0,.876.015,1.674.039,1.766a.9.9,0,0,0,.493.609l.242.121,1.678-.015L21.315,22Zm-8.136-4.7a4.8,4.8,0,0,0,3.705-3.725,5.909,5.909,0,0,0,.053-1.572A4.872,4.872,0,0,0,14.664,8.3a5.191,5.191,0,0,0-1.277-.474c-.092-.01-.285-.039-.431-.063A4.779,4.779,0,0,0,8.641,9.609a4.733,4.733,0,0,0,.092,5.877,4.823,4.823,0,0,0,3.193,1.737A5.048,5.048,0,0,0,13.387,17.155ZM4.965,14.015A7.676,7.676,0,0,1,5.6,9.106,7.116,7.116,0,0,1,7.05,7.118,7.544,7.544,0,0,1,13.633,4.97,7.663,7.663,0,0,1,19.8,10.581a7.512,7.512,0,0,1,.2,2.709,5.326,5.326,0,0,1-.2,1.045c-.015.024-.01.044.015.048.184.019,2.065.015,2.1-.01s.039-2.162.034-5.4L21.929,3.6l-.145-.208a1.208,1.208,0,0,0-.363-.319L21.2,2.963l-8.833.015-8.828.01-.2.131a1.272,1.272,0,0,0-.31.314l-.116.184L2.9,8.961c0,2.941,0,5.364.01,5.393a5.206,5.206,0,0,0,1.079.048H5.052Z" transform="translate(-0.044 -0.117)"/>
</svg>
